<svg xmlns="http://www.w3.org/2000/svg" width="1536" height="864" viewBox="0 0 1536 864">
<defs>
  <linearGradient id="bg" x1="0" y1="0" x2="1" y2="1"><stop stop-color="#020711"/><stop offset=".55" stop-color="#071625"/><stop offset="1" stop-color="#05050b"/></linearGradient>
  <radialGradient id="planet" cx="42%" cy="30%" r="70%"><stop stop-color="#28e6ff"/><stop offset=".42" stop-color="#0a6f9e"/><stop offset="1" stop-color="#05121f"/></radialGradient>
  <linearGradient id="panel" x1="0" x2="1"><stop stop-color="#081c2d" stop-opacity=".96"/><stop offset="1" stop-color="#07131e" stop-opacity=".96"/></linearGradient>
  <linearGradient id="cta" x1="0" x2="1"><stop stop-color="#10d9ff"/><stop offset="1" stop-color="#8e52ff"/></linearGradient>
  <filter id="cyan"><feGaussianBlur stdDeviation="7" result="b"/><feMerge><feMergeNode in="b"/><feMergeNode in="SourceGraphic"/></feMerge></filter>
  <filter id="purple"><feGaussianBlur stdDeviation="9" result="b"/><feMerge><feMergeNode in="b"/><feMergeNode in="SourceGraphic"/></feMerge></filter>
  <pattern id="grid" width="42" height="42" patternUnits="userSpaceOnUse"><path d="M42 0H0V42" fill="none" stroke="#39d6ff" stroke-opacity=".065" stroke-width="1"/></pattern>
</defs>
<rect width="1536" height="864" fill="url(#bg)"/>
<rect width="1536" height="864" fill="url(#grid)"/>
<g fill="#8eeeff" opacity=".55"><circle cx="90" cy="92" r="2"/><circle cx="230" cy="140" r="1.5"/><circle cx="620" cy="84" r="2"/><circle cx="1110" cy="128" r="1.8"/><circle cx="1325" cy="75" r="2"/><circle cx="1450" cy="190" r="1.4"/><circle cx="1030" cy="590" r="2"/></g>
<rect x="20" y="20" width="1496" height="824" rx="22" fill="none" stroke="#39d6ff" stroke-opacity=".55" stroke-width="2"/>
<rect x="36" y="36" width="1464" height="792" rx="18" fill="none" stroke="#8d55ff" stroke-opacity=".26"/>

<!-- orbital storage illustration -->
<g transform="translate(70 150)">
  <circle cx="310" cy="300" r="205" fill="url(#planet)" stroke="#42e7ff" stroke-width="3"/>
  <path d="M80 310c120-92 356-126 520-66 120 44 145 105 72 158-109 80-388 111-552 48-119-46-137-98-40-140z" fill="none" stroke="#80f4ff" stroke-width="4" opacity=".7"/>
  <path d="M44 327c132-121 423-166 613-94 153 57 166 133 38 205-145 81-453 116-614 26-104-58-117-92-37-137z" fill="none" stroke="#8d55ff" stroke-width="2" opacity=".6"/>
  <g filter="url(#cyan)">
    <rect x="50" y="214" width="112" height="78" rx="10" fill="#061826" stroke="#42e7ff" stroke-width="3"/><path d="M64 238h84M72 258h68M82 276h48" stroke="#42e7ff" stroke-width="3" opacity=".8"/>
    <rect x="498" y="128" width="120" height="84" rx="10" fill="#061826" stroke="#42e7ff" stroke-width="3"/><path d="M512 154h92M518 175h80M532 195h53" stroke="#42e7ff" stroke-width="3" opacity=".8"/>
    <rect x="528" y="430" width="130" height="90" rx="10" fill="#061826" stroke="#42e7ff" stroke-width="3"/><path d="M544 458h98M550 480h86M566 504h52" stroke="#42e7ff" stroke-width="3" opacity=".8"/>
  </g>
  <g transform="translate(213 200)">
    <rect width="188" height="220" rx="20" fill="#06131f" stroke="#8eeeff" stroke-width="4"/>
    <rect x="22" y="26" width="144" height="48" rx="7" fill="#0b2940" stroke="#42e7ff"/>
    <rect x="22" y="89" width="65" height="98" rx="8" fill="#0b2940" stroke="#42e7ff"/>
    <rect x="101" y="89" width="65" height="98" rx="8" fill="#0b2940" stroke="#42e7ff"/>
    <circle cx="55" cy="138" r="7" fill="#42e7ff"/><circle cx="134" cy="138" r="7" fill="#8d55ff"/>
    <text x="94" y="208" text-anchor="middle" fill="#a9f7ff" font-family="Arial,sans-serif" font-size="14" letter-spacing="3">MOON-LOCK 06</text>
  </g>
</g>

<!-- copy panel -->
<g transform="translate(710 92)">
  <text x="0" y="25" fill="#7eeeff" font-family="Arial,sans-serif" font-size="18" letter-spacing="4">ϞƤΘИϞΘЯΞÐ // ÐΘϺΞϞŦɪϾ</text>
  <text x="0" y="105" fill="#e7fbff" font-family="Arial,sans-serif" font-size="62" font-weight="900" letter-spacing="2">ΘЯβɪŦ∆Ł ϞŦΘЯ∆ǤΞ</text>
  <text x="0" y="170" fill="#bfefff" font-family="Arial,sans-serif" font-size="43" font-weight="800" letter-spacing="2">ЯՍИИɪИǤ ŁΘШ?</text>
  <text x="0" y="224" fill="#6fdff7" font-family="Arial,sans-serif" font-size="22" letter-spacing="2">ΞЖƤ∆ИÐ ҰΘՍЯ ĦΘՍϞΞĦΘŁÐ Ͼ∆Ƥ∆ϾɪŦҰ</text>

  <rect x="0" y="270" width="730" height="160" rx="18" fill="url(#panel)" stroke="#39d6ff" stroke-opacity=".6" stroke-width="2"/>
  <text x="35" y="322" fill="#8eeeff" font-family="Arial,sans-serif" font-size="19" letter-spacing="3">ϾՍЯЯΞИŦ ƤŁ∆И</text>
  <text x="35" y="385" fill="#fff" font-family="Arial,sans-serif" font-size="46" font-weight="900">ϞɪЖ ∆ÐÐɪŦɪΘИ∆Ł ϺΘΘИϞ</text>
  <text x="35" y="416" fill="#7baec3" font-family="Arial,sans-serif" font-size="16" letter-spacing="2">ΞИϾЯҰƤŦΞÐ // ϾŁɪϺ∆ŦΞ ϾΘИŦЯΘŁŁΞÐ // ÐɪϞϾЯΞΞŦ</text>

  <g transform="translate(0 462)">
    <rect width="730" height="110" rx="30" fill="url(#cta)" filter="url(#cyan)"/>
    <text x="365" y="70" text-anchor="middle" fill="#031019" font-family="Arial,sans-serif" font-size="34" font-weight="900" letter-spacing="3">ϾĦΞϾҠ ΞŁɪǤɪβɪŁɪŦҰ  &gt;&gt;&gt;</text>
  </g>

  <g transform="translate(0 615)" font-family="Arial,sans-serif">
    <rect width="730" height="88" rx="12" fill="#050c14" stroke="#8d55ff" stroke-opacity=".6"/>
    <text x="28" y="36" fill="#a98cff" font-size="16" font-weight="800" letter-spacing="2">ИΘŦΞ</text>
    <text x="28" y="65" fill="#9bc9d8" font-size="18">ϺɪИɪϺՍϺ ϺΘΘИ ϾΘՍИŦ ∆ƤƤŁɪΞϞ. ŦΞЯЯ∆ИϞ Ϻ∆Ұ βΞ ɪИΞŁɪǤɪβŁΞ.</text>
  </g>
</g>
</svg>